<svg xmlns="http://www.w3.org/2000/svg" version="1.1" xmlns:xlink="http://www.w3.org/1999/xlink" xmlns:svgjs="http://svgjs.dev/svgjs" viewBox="0 0 800 800" opacity="0.28"><g stroke="#d5d6d7" fill="none" stroke-linecap="round"><circle r="938" cx="400" cy="400" stroke-width="18" stroke-dasharray="52 50" stroke-dashoffset="25" transform="rotate(131, 400, 400)" opacity="0.05"></circle><circle r="904.5" cx="400" cy="400" stroke-width="17" stroke-dasharray="52 36" stroke-dashoffset="25" transform="rotate(137, 400, 400)" opacity="0.09"></circle><circle r="871" cx="400" cy="400" stroke-width="17" stroke-dasharray="54 33" stroke-dashoffset="25" transform="rotate(353, 400, 400)" opacity="0.12"></circle><circle r="837.5" cx="400" cy="400" stroke-width="17" stroke-dasharray="31 60" stroke-dashoffset="25" transform="rotate(346, 400, 400)" opacity="0.16"></circle><circle r="804" cx="400" cy="400" stroke-width="17" stroke-dasharray="42 35" stroke-dashoffset="25" transform="rotate(71, 400, 400)" opacity="0.19"></circle><circle r="770.5" cx="400" cy="400" stroke-width="16" stroke-dasharray="58 33" stroke-dashoffset="25" transform="rotate(36, 400, 400)" opacity="0.23"></circle><circle r="737" cx="400" cy="400" stroke-width="16" stroke-dasharray="52 68" stroke-dashoffset="25" transform="rotate(38, 400, 400)" opacity="0.26"></circle><circle r="703.5" cx="400" cy="400" stroke-width="16" stroke-dasharray="43 43" stroke-dashoffset="25" transform="rotate(14, 400, 400)" opacity="0.30"></circle><circle r="670" cx="400" cy="400" stroke-width="16" stroke-dasharray="71 57" stroke-dashoffset="25" transform="rotate(193, 400, 400)" opacity="0.33"></circle><circle r="636.5" cx="400" cy="400" stroke-width="16" stroke-dasharray="61 50" stroke-dashoffset="25" transform="rotate(82, 400, 400)" opacity="0.37"></circle><circle r="603" cx="400" cy="400" stroke-width="15" stroke-dasharray="51 40" stroke-dashoffset="25" transform="rotate(265, 400, 400)" opacity="0.40"></circle><circle r="569.5" cx="400" cy="400" stroke-width="15" stroke-dasharray="46 33" stroke-dashoffset="25" transform="rotate(222, 400, 400)" opacity="0.44"></circle><circle r="536" cx="400" cy="400" stroke-width="15" stroke-dasharray="66 64" stroke-dashoffset="25" transform="rotate(30, 400, 400)" opacity="0.47"></circle><circle r="502.5" cx="400" cy="400" stroke-width="15" stroke-dasharray="42 61" stroke-dashoffset="25" transform="rotate(141, 400, 400)" opacity="0.51"></circle><circle r="469" cx="400" cy="400" stroke-width="14" stroke-dasharray="41 41" stroke-dashoffset="25" transform="rotate(340, 400, 400)" opacity="0.54"></circle><circle r="435.5" cx="400" cy="400" stroke-width="14" stroke-dasharray="61 67" stroke-dashoffset="25" transform="rotate(164, 400, 400)" opacity="0.58"></circle><circle r="402" cx="400" cy="400" stroke-width="14" stroke-dasharray="58 44" stroke-dashoffset="25" transform="rotate(57, 400, 400)" opacity="0.61"></circle><circle r="368.5" cx="400" cy="400" stroke-width="14" stroke-dasharray="52 49" stroke-dashoffset="25" transform="rotate(335, 400, 400)" opacity="0.65"></circle><circle r="335" cx="400" cy="400" stroke-width="14" stroke-dasharray="41 43" stroke-dashoffset="25" transform="rotate(287, 400, 400)" opacity="0.68"></circle><circle r="301.5" cx="400" cy="400" stroke-width="13" stroke-dasharray="32 56" stroke-dashoffset="25" transform="rotate(167, 400, 400)" opacity="0.72"></circle><circle r="268" cx="400" cy="400" stroke-width="13" stroke-dasharray="44 61" stroke-dashoffset="25" transform="rotate(331, 400, 400)" opacity="0.75"></circle><circle r="234.5" cx="400" cy="400" stroke-width="13" stroke-dasharray="66 41" stroke-dashoffset="25" transform="rotate(289, 400, 400)" opacity="0.79"></circle><circle r="201" cx="400" cy="400" stroke-width="13" stroke-dasharray="75 33" stroke-dashoffset="25" transform="rotate(340, 400, 400)" opacity="0.82"></circle><circle r="167.5" cx="400" cy="400" stroke-width="12" stroke-dasharray="76 68" stroke-dashoffset="25" transform="rotate(278, 400, 400)" opacity="0.86"></circle><circle r="134" cx="400" cy="400" stroke-width="12" stroke-dasharray="42 75" stroke-dashoffset="25" transform="rotate(131, 400, 400)" opacity="0.89"></circle><circle r="100.5" cx="400" cy="400" stroke-width="12" stroke-dasharray="77 48" stroke-dashoffset="25" transform="rotate(98, 400, 400)" opacity="0.93"></circle><circle r="67" cx="400" cy="400" stroke-width="12" stroke-dasharray="33 66" stroke-dashoffset="25" transform="rotate(181, 400, 400)" opacity="0.96"></circle><circle r="33.5" cx="400" cy="400" stroke-width="12" stroke-dasharray="61 34" stroke-dashoffset="25" transform="rotate(344, 400, 400)" opacity="1.00"></circle></g></svg>